<svg width="32" height="32" viewBox="0 0 32 32" fill="none" xmlns="http://www.w3.org/2000/svg">
  <defs>
    <linearGradient id="logoGradient" x1="0%" y1="0%" x2="100%" y2="100%">
      <stop offset="0%" style="stop-color:#3b82f6;stop-opacity:1" />
      <stop offset="50%" style="stop-color:#8b5cf6;stop-opacity:1" />
      <stop offset="100%" style="stop-color:#ec4899;stop-opacity:1" />
    </linearGradient>
    <linearGradient id="innerGradient" x1="0%" y1="0%" x2="100%" y2="100%">
      <stop offset="0%" style="stop-color:#60a5fa;stop-opacity:1" />
      <stop offset="100%" style="stop-color:#a855f7;stop-opacity:1" />
    </linearGradient>
  </defs>
  
  <!-- Outer ring with glow effect -->
  <circle cx="16" cy="16" r="15" fill="url(#logoGradient)" opacity="0.2"/>
  
  <!-- Main logo shape - stylized "E" -->
  <path d="M8 6 L24 6 L24 10 L12 10 L12 14 L22 14 L22 18 L12 18 L12 22 L24 22 L24 26 L8 26 Z" fill="url(#logoGradient)"/>
  
  <!-- Inner accent -->
  <path d="M10 8 L22 8 L22 12 L14 12 L14 16 L20 16 L20 20 L14 20 L14 24 L22 24 L22 24 L10 24 Z" fill="url(#innerGradient)" opacity="0.8"/>
  
  <!-- Central dot -->
  <circle cx="16" cy="16" r="2" fill="white" opacity="0.9"/>
  
  <!-- Glow effect -->
  <circle cx="16" cy="16" r="14" fill="none" stroke="url(#logoGradient)" stroke-width="1" opacity="0.3"/>
</svg>
